<?xml version="1.0" standalone="no"?>
<!DOCTYPE svg PUBLIC "-//W3C//DTD SVG 20010904//EN"
 "http://www.w3.org/TR/2001/REC-SVG-20010904/DTD/svg10.dtd">
<svg version="1.0" xmlns="http://www.w3.org/2000/svg"
 width="512.000000pt" height="512.000000pt" viewBox="0 0 512.000000 512.000000"
 preserveAspectRatio="xMidYMid meet">
<metadata>
Created by potrace 1.11, written by Peter Selinger 2001-2013
</metadata>
<g transform="translate(0.000000,512.000000) scale(0.100000,-0.100000)"
fill="#000000" stroke="none">
<path d="M1349 5116 c-2 -2 -47 -6 -99 -10 -377 -26 -646 -139 -875 -370 -225
-227 -330 -479 -363 -871 -9 -117 -9 -2502 0 -2620 33 -387 154 -666 387 -890
141 -136 363 -254 556 -298 224 -51 263 -52 1610 -52 1085 0 1322 3 1415 19
14 3 44 7 67 10 216 28 463 138 628 280 225 194 370 460 411 756 2 19 6 44 9
55 16 76 20 374 20 1440 0 666 -3 1253 -8 1306 -22 292 -90 501 -227 704 -156
231 -408 408 -684 479 -83 22 -133 31 -301 53 -51 7 -2538 16 -2546 9z m2531
-570 c25 -3 59 -9 75 -12 17 -3 44 -8 60 -11 111 -19 240 -89 331 -179 111
-109 170 -245 200 -459 7 -46 17 -2292 11 -2285 -2 3 -31 37 -64 76 -234 273
-561 517 -888 660 -44 20 -89 39 -100 44 -86 38 -364 118 -465 134 -19 3 -46
8 -60 10 -134 24 -223 31 -420 31 -164 0 -294 -8 -355 -20 -11 -3 -36 -7 -55
-10 -571 -84 -1139 -402 -1532 -858 l-59 -68 2 1073 c1 834 4 1100 15 1196 22
195 47 273 130 397 109 166 312 264 578 282 50 3 93 7 95 9 7 7 2454 -3 2501
-10z m-1075 -2560 c130 -20 167 -27 190 -36 14 -5 25 -8 25 -5 0 2 23 -3 52
-11 28 -9 59 -17 67 -19 48 -10 211 -76 312 -127 366 -183 660 -465 862 -825
25 -46 51 -99 59 -119 l13 -37 -58 -52 c-68 -62 -172 -119 -263 -145 -151 -44
-198 -45 -1474 -45 -668 0 -1258 4 -1310 8 -147 12 -237 34 -335 82 -91 44
-205 134 -205 161 0 8 16 47 36 86 276 548 815 955 1409 1062 17 3 41 8 55 11
14 3 57 8 95 11 39 4 72 8 74 10 6 5 352 -4 396 -10z"/>
</g>
</svg>
