<svg xmlns="http://www.w3.org/2000/svg" preserveAspectRatio="xMidYMid slice" width="1400" height="900" viewBox="0 0 1400 900"><style>.ha{fill:#FFF;}.hb{fill:#BDE5DE;}.hc{fill:#F2DAC7;}.hd{fill:#FFC377;}.he{fill:#8790B4;}.hf{fill:#844949;}.hg{fill:#FF6C4D;}.hh{fill:#669BB6;}.hi{fill:#DDB69B;}.hj{fill:#FCAEA1;}.hk{fill:#786D63;}.hl{fill:#333;}.hm{fill:#826F60;}.hn{fill:#FDCE7A;}.ho{fill:#00574C;}.hp{fill:#F4DCC9;}.hq{fill:#59443B;}.hr{fill:#24201D;}</style><title>Group of people wearing face masks</title><defs><rect width="1400" height="900"/></defs><g fill="none"><rect width="1400" height="900" class="ha"/><mask fill="white"><rect width="1400" height="900"/></mask><g ><path d="M1221 5C1176 4 1127 6 1084 23 1072 27 1061 33 1053 42 1034 60 1030 88 1027 114 1026 128 1006 469 1016 469 1020 469 1058 471 1059 469 1059 470 1059 470 1059 471 1106 471 1154 472 1202 473 1240 473 1279 474 1317 474 1334 475 1389 484 1395 469 1396 468 1396 467 1396 466 1394 417 1388 184 1379 136 1372 103 1373 48 1339 29 1303 9 1262 6 1221 5" class="hb"/><path d="M1234-29C1234-26 1234-23 1234-20 1237-6 1248-5 1252 6 1253 9 1252 12 1251 14 1244 32 1224 44 1204 43 1184 41 1165 27 1161 8 1189-3 1176-38 1175-58 1175-60 1175-62 1175-63 1177-66 1181-67 1184-67 1198-68 1228-73 1234-57 1238-48 1235-38 1234-29" class="hc"/></g><g  class="hd"><path d="M566-119C528-120 489-117 453-99 443-94 434-88 427-79 412-58 409-27 406 1 405 16 392 185 399 186 403 186 435 188 435 186 435 187 435 187 435 188 474 188 514 189 553 190 585 190 616 191 648 192 662 192 708 202 713 185 713 184 713 183 713 182 712 129 704 77 696 25 690-11 691-71 664-92 634-115 600-118 566-119"/></g><g  class="he"><path d="M117-66C79-67 40-64 4-46 -6-41-15-35-22-26 -37-5-40 26-43 54 -44 69-57 238-50 239 -46 239-14 241-14 239 -14 240-14 240-14 241 25 241 65 242 104 243 136 243 167 244 199 245 213 245 259 255 264 238 264 237 264 236 264 235 263 182 255 130 247 78 241 42 242-18 215-39 185-62 151-65 117-66"/></g><g ><path d="M415-33C422-10 428 14 429 39 430 70 419 103 394 121 375 135 351 139 327 141 306 143 284 143 263 137 242 131 223 117 215 96 210 83 211 69 211 55 213 10 214-37 218-81 221-111 231-158 265-169 305-204 361-186 383-129 385-125 386-120 388-115 395-88 406-61 415-33" class="hf"/><path d="M324 28C278 27 229 29 186 46 174 50 163 56 155 64 136 83 132 111 129 137 127 151 112 304 121 305 125 305 164 307 164 305 164 306 164 306 164 307 212 307 260 308 308 309 346 309 385 310 423 310 441 311 496 320 502 305 502 304 502 303 502 301 501 253 491 206 482 159 475 126 475 71 442 52 406 32 365 28 324 28" class="hg"/><path d="M303-43C310-39 316-35 322-30 326-27 329-24 331-20 333-16 334-11 334-7 334 6 338 23 353 27 355 27 357 27 359 28 361 29 363 31 363 33 363 40 348 49 343 51 333 56 324 57 313 55 304 53 296 52 287 50 277 49 265 46 259 38 257 35 256 32 257 30 258 28 259 27 261 26 280 14 285 7 291-13 292-15 302-44 303-43" class="hc"/></g><g ><path d="M722 12C776 3 858-2 904 36 944 70 955 140 965 188 973 232 982 275 990 319 994 336 997 355 990 371 973 413 809 388 770 388 712 387 655 386 597 385 602 384 608 292 608 285 615 214 613 138 628 69 629 61 631 54 635 47 644 33 660 28 675 23 691 18 706 15 722 12" class="hh"/><path d="M756-15C756-14 755-12 755-11 754-8 753-5 751-2 746 4 737 4 731 8 730 9 729 10 729 11 729 13 730 14 732 15 760 36 807 46 827 10 818 5 808 3 805-8 803-17 808-30 807-40 804-54 788-84 771-72 759-64 759-28 756-15" class="hi"/></g><g ><path d="M1296-39C1317-49 1325-68 1352-70 1376-71 1397-60 1414-44 1458-1 1481 61 1503 117 1519 160 1534 211 1511 251 1497 274 1471 289 1444 289 1415 289 1388 274 1369 253 1349 231 1336 205 1324 179 1314 156 1291 150 1286 122 1282 103 1279 83 1274 64 1264 29 1258-20 1296-39" class="hf"/><path d="M1576 429C1567 392 1558 355 1548 318 1537 272 1533 207 1489 180 1447 154 1395 147 1345 148 1340 148 1335 148 1330 149 1321 149 1311 150 1302 152 1282 156 1263 163 1245 174 1201 201 1197 267 1186 312 1177 349 1167 387 1158 424 1158 424 1183 423 1219 423 1219 423 1219 424 1219 424L1576 429" class="hj"/><path d="M1371 82C1364 86 1358 91 1352 95 1348 98 1345 101 1343 106 1341 110 1340 114 1340 119 1339 136 1340 141 1324 147 1323 147 1321 147 1320 148 1320 150 1319 151 1319 153 1320 167 1332 180 1346 181 1351 182 1356 181 1361 180 1370 178 1378 177 1387 176 1397 174 1408 171 1415 163 1417 161 1418 158 1417 155 1416 153 1414 152 1413 151 1394 139 1389 133 1382 112 1382 110 1372 82 1371 82" class="hc"/><path d="M1324 139C1324 139 1324 139 1324 139 1328 141 1332 143 1337 142 1344 141 1351 139 1357 135 1373 125 1385 109 1389 91 1401 46 1382-1 1382-1 1355-54 1266-36 1271 19 1271 19 1272 102 1324 139" class="hc"/><path d="M1311 135C1311 135 1311 135 1311 135 1323 145 1339 147 1353 141 1359 138 1365 134 1369 128 1374 123 1377 117 1381 113 1369 97 1362 78 1363 58L1363 55C1356 54 1348 53 1340 52 1318 49 1295 56 1278 71 1282 100 1299 124 1311 135" class="ha"/><path d="M1354 63L1354 62C1354 62 1388 58 1391 41L1393 41C1391 49 1384 55 1372 59 1363 62 1354 63 1354 63" class="ha"/><path d="M1368 113L1367 112C1384 102 1390 88 1390 88L1391 88C1391 88 1385 103 1368 113" class="ha"/><path d="M1292-23C1292-23 1319 50 1392 41 1425-13 1325-76 1292-23" class="hf"/></g><g ><path d="M32-6C23 3 16 13 12 24 1 49-5 75-7 102 -8 118-10 133-9 149 -8 171-5 176 16 168 57 153 97 136 136 116 153 108 170 98 177 81 192 43 171-17 133-33 97-48 58-34 32-6" class="hk"/><path d="M-95 683C-86 646-76 377-67 339 -55 294-52 228-7 201 34 176 86 169 136 169 141 170 146 170 151 170 161 170 170 171 179 174 199 178 218 185 236 196 280 223 284 289 295 334 305 371 314 640 323 678 323 678 299 675 262 675 261 683 262 678 262 678L-95 683" class="ha"/><path d="M111 104C117 108 123 112 129 117 133 120 137 123 139 127 141 131 141 136 141 140 142 157 141 163 157 168 159 168 160 169 161 170 162 171 162 173 162 174 161 188 149 201 135 203 130 203 125 202 120 201 112 200 103 198 95 197 84 195 73 193 66 184 65 182 64 179 65 177 65 175 67 174 69 173 88 160 92 154 99 134 100 132 110 103 111 104" class="hi"/><path d="M71 166C71 166 71 166 71 166 74 169 79 170 84 170 91 170 98 168 105 165 122 157 135 142 142 123 158 79 143 29 143 29 121-28 29-18 28 38 28 38 22 123 71 166" class="hi"/><path d="M170 81C164 61 147 75 147 75L142 120C155 122 176 104 170 81" class="hi"/><path d="M58 160C58 160 58 161 58 161 69 172 85 176 100 171 107 168 113 165 118 159 123 154 127 149 131 145 120 128 116 107 118 87L119 84C112 82 104 80 96 79 73 74 49 79 30 92 32 122 47 148 58 160" class="ha"/><path d="M116 143L115 142C134 133 140 120 140 120L141 120C141 120 134 134 116 143" class="ha"/><path d="M49-1C60 41 133 99 168 70 175 64 175 54 173 45 164 4 128-29 87-35 76-37 64-36 56-29 47-23 46-12 49-1" class="hk"/><path d="M110 91L110 90C111 90 145 89 150 71L151 72C149 80 141 85 129 89 119 91 110 91 110 91" class="ha"/></g><g ><path d="M531 139C561 136 591 133 621 132 640 132 659 133 676 140 706 152 727 181 738 211 744 230 768 496 771 496 771 496 394 491 394 491 395 491 406 329 408 311 412 269 412 185 453 158 470 147 491 144 512 142 518 141 525 140 531 139" class="ha"/><path d="M635-16C638-25 641-36 639-45 635-62 618-71 601-74 591-77 580-79 569-75 561-72 554-67 547-62 540-58 534-53 527-49 520-44 513-39 507-32 493-15 499 11 507 30 518 55 537 76 556 96 572 82 587 68 603 54 613 45 623 36 629 25 636 13 640-4 635-16" class="hl"/><path d="M592 108C628 93 655 58 661 19 662 8 662-4 657-14 652-24 640-31 629-29 599 10 586 59 592 108" class="hl"/><path d="M617 118C619 120 620 122 621 125 629 136 632 145 619 157 613 162 605 166 597 167 579 170 567 164 556 151 543 137 553 128 564 118 580 104 577 92 581 72 583 62 586 47 597 56 604 61 606 79 607 86 610 100 612 108 617 118" class="hm"/><path d="M514 8C513-17 541-31 571-33 600-35 631-25 632 0 632 0 644 72 607 114 600 122 591 127 582 128 572 128 562 125 554 118 512 81 514 8 514 8" class="hm"/><path d="M652 41C647 26 631 37 631 37L629 74C640 75 658 60 652 41" class="hm"/><path d="M545 118C545 118 545 118 545 118 555 129 572 133 587 129 593 127 600 123 605 118 610 113 615 108 619 104 608 88 604 67 608 48L608 45C601 43 593 41 585 39 563 34 538 38 519 50 520 80 533 106 545 118" class="ha"/><path d="M630 70C629 73 627 75 625 77 623 79 621 81 619 82 617 84 614 86 612 87 611 87 609 88 608 88 607 89 605 89 604 90L604 89C605 89 606 88 608 88 609 87 610 86 611 86 614 84 616 83 618 82 621 80 623 78 625 76 627 75 629 73 630 70L630 70" class="ha"/><path d="M598 56L598 55C598 55 633 48 635 31L636 31C635 38 628 45 616 50 607 54 598 56 598 56" class="ha"/></g><g ><path d="M1051-123C1011-157 953-139 932-92 923-70 911-50 896-32 863 7 869 79 959 75 977 74 995 74 1013 75 1048 78 1091 76 1096 21 1098 1 1092-17 1093-35 1095-69 1091-113 1051-123" class="hn"/><path d="M1033 69C987 68 939 70 896 87 870 97 854 117 848 143 839 181 825 217 816 255 801 326 795 399 794 471 793 494 793 517 799 538 797 530 870 534 871 533 870 533 870 534 870 534 918 535 966 535 1014 536 1052 537 1090 537 1129 538 1146 538 1201 547 1207 532 1207 531 1207 530 1207 529 1206 481 1200 247 1190 200 1183 167 1184 112 1151 94 1115 73 1074 70 1033 69" class="ho"/><path d="M1041 35C1040 38 1040 41 1041 44 1043 58 1053 59 1057 70 1058 73 1058 76 1057 78 1050 96 1031 108 1012 107 994 105 977 91 972 72 999 61 987 27 985 6 985 4 985 3 986 1 987-2 991-3 994-3 1007-4 1035-9 1041 7 1044 17 1041 26 1041 35" class="hi"/><path d="M1074-75C1074-125 956-125 956-75 956-75 949-2 989 39 1004 54 1030 54 1046 39 1086-1 1074-75 1074-75" class="hi"/><path d="M1074-16C1073 11 1056 33 1045 41 1029 54 1005 55 989 41 982 34 977 27 967 24 965 24 963 0 961-16 963-17 983-26 1003-32 1025-38 1048-34 1066-21 1070-19 1073-17 1074-16" class="ha"/></g><g ><path d="M385 98C367 93 358 81 339 82 312 84 298 98 283 119 272 134 249 144 242 160 236 173 245 186 247 199 249 211 246 223 239 232 235 237 231 240 228 245 223 252 222 260 220 268 217 286 214 304 211 323 243 318 276 318 308 324 300 322 313 295 316 292 324 285 338 282 347 274 374 249 397 221 416 190 436 158 424 107 385 98" class="hn"/><path d="M354 290C308 289 260 291 217 307 205 312 194 318 185 326 167 345 163 373 160 399 158 413 139 753 149 753 153 754 191 756 192 754 191 754 191 755 191 755 239 756 287 757 335 757 373 758 411 758 449 759 467 759 522 769 527 753 528 752 528 751 528 750 527 702 521 468 511 421 504 388 505 333 472 314 435 294 394 290 354 290" class="hh"/><path d="M366 254C365 257 365 261 366 264 369 277 379 279 384 290 385 293 384 296 383 298 376 316 355 329 335 327 315 326 296 311 292 292 320 281 307 246 306 225 306 223 306 221 306 220 308 217 312 216 316 216 329 215 359 210 366 226 369 235 366 245 366 254" class="hc"/><path d="M448 246C448 243 447 240 446 237 442 228 430 224 425 215 419 206 422 194 422 182 421 161 407 141 386 133 392 151 403 172 401 193 399 212 399 231 389 248 384 257 370 262 366 270 351 301 356 334 351 367 392 364 433 363 474 364 467 350 464 334 465 318 465 308 467 298 463 290 459 283 452 279 449 272 445 264 448 255 448 246" class="hn"/><path d="M407 149C407 100 287 100 287 149 287 149 280 222 321 261 337 277 363 277 379 261 419 222 407 149 407 149" class="hc"/><path d="M272 184C276 168 292 178 292 178L296 216C286 218 267 203 272 184" class="hc"/><path d="M403 204C401 232 385 255 374 263 358 277 334 278 318 263 310 256 305 249 296 245 294 245 291 221 290 204 292 203 312 194 332 188 354 181 377 185 395 198 399 201 402 204 403 204" class="ha"/><path d="M292 209C292 209 291 192 287 176L292 209" class="ha"/><path d="M372 98C372 98 357 173 285 177 243 131 330 52 372 98" class="hn"/><path d="M407 168C376 147 364 102 364 102 402 94 424 132 407 168" class="hn"/></g><g ><path d="M1123 315C1176 306 1257 301 1302 338 1341 371 1353 440 1362 488 1370 531 1379 574 1387 616 1391 633 1394 652 1387 668 1370 709 1208 685 1170 684 1113 683 1056 682 999 681 1004 681 1010 590 1010 583 1017 513 1015 439 1029 371 1031 363 1033 356 1037 349 1045 336 1061 330 1076 326 1091 321 1107 318 1123 315" class="he"/><path d="M1159 287C1159 289 1159 290 1158 291 1158 294 1157 297 1154 300 1150 306 1141 306 1135 310 1134 311 1133 311 1132 312 1132 314 1134 316 1135 317 1163 337 1210 347 1230 312 1222 307 1211 304 1208 294 1206 285 1212 272 1210 263 1208 249 1191 219 1174 231 1162 240 1162 274 1159 287" class="hp"/><path d="M1113 113C1119 123 1131 119 1140 116 1151 113 1162 108 1174 108 1190 108 1208 118 1219 130 1231 144 1231 167 1221 184L1130 193 1127 197C1088 168 1113 113 1113 113" class="hq"/><path d="M1192 284C1234 266 1261 230 1262 193 1263 182 1261 170 1253 161 1245 152 1231 147 1218 150 1187 190 1179 238 1192 284" class="hq"/><path d="M1144 297C1144 297 1144 297 1144 297 1147 300 1151 301 1155 302 1161 302 1167 301 1173 298 1189 293 1201 281 1207 266 1224 229 1215 187 1215 187 1200 137 1121 139 1116 186 1116 186 1105 258 1144 297" class="hc"/><path d="M1231 238C1227 221 1210 231 1210 231L1203 269C1214 272 1235 258 1231 238" class="hc"/><path d="M1216 221C1216 221 1189 196 1195 163 1210 170 1226 189 1222 204 1221 207 1217 218 1216 221" class="hq"/><path d="M1129 296C1129 296 1129 296 1129 296 1138 306 1152 311 1165 307 1171 306 1177 303 1181 299 1186 295 1190 290 1194 287 1185 271 1183 253 1187 235L1187 233C1181 231 1174 228 1168 226 1148 221 1127 223 1110 233 1109 260 1120 284 1129 296" class="ha"/><path d="M1182 238C1179 238 1177 238 1177 238L1177 237C1178 237 1209 239 1214 224L1216 225C1213 231 1205 235 1194 237 1189 238 1185 238 1182 238" class="ha"/><path d="M1183 285L1182 284C1199 278 1206 266 1206 265L1207 266C1207 266 1200 279 1183 285" class="ha"/></g><g ><path d="M741 163C743 148 752 135 774 123 792 115 812 113 831 117 933 134 909 282 903 356 902 371 900 388 890 397 877 410 856 406 839 402 825 398 812 394 799 388 773 375 752 350 743 321 733 291 743 269 745 240 746 211 737 185 741 163" class="hf"/><path d="M1008 610C999 572 989 535 980 498 969 453 965 387 921 360 879 334 828 327 778 328 773 328 768 328 763 328 753 329 744 330 735 332 715 336 696 343 678 354 634 381 630 447 619 492 610 530 600 567 591 604 591 604 616 604 652 603 652 604 652 604 652 604L1008 610" class="hn"/><path d="M761 307C760 309 760 310 760 311 759 314 758 317 756 320 751 326 742 326 736 330 735 330 734 331 734 332 733 334 735 335 736 337 764 357 811 367 831 332 823 327 812 325 810 314 808 305 813 293 812 283 810 270 793 239 776 251 764 260 764 294 761 307" class="hp"/><path d="M791 297C783 314 769 335 750 341 742 344 734 344 725 346 709 348 693 354 679 362 682 335 694 313 701 288 709 262 711 233 716 205 718 195 719 185 724 175 744 132 767 165 779 198 791 232 805 265 791 297" class="hf"/><path d="M870 199C871 174 842 161 813 161 783 160 754 171 753 195 753 195 744 267 782 308 789 315 799 319 808 320 818 320 827 316 835 309 875 271 870 199 870 199" class="hp"/><path d="M739 234C744 218 760 229 760 229L764 266C753 268 734 253 739 234" class="hp"/><path d="M843 309C843 309 843 309 843 309 833 320 817 324 802 319 796 317 789 314 784 309 779 304 775 299 771 296 781 279 785 260 782 241L782 239C788 237 796 235 804 233 826 228 849 232 868 244 867 273 854 297 843 309" class="ha"/><path d="M790 251C790 251 781 249 772 245 760 239 753 233 752 225L753 225C755 242 790 249 790 250L790 251" class="ha"/><path d="M784 285C766 277 759 264 759 264L760 264C760 264 767 276 785 284L784 285" class="ha"/></g><g ><path d="M1196 1044C1206 1006 1215 769 1225 731 1237 684 1240 616 1286 588 1329 562 1382 554 1434 555 1439 556 1444 556 1450 556 1459 556 1469 557 1478 560 1499 564 1519 571 1537 583 1583 611 1586 679 1598 725 1608 764 1617 1000 1627 1039 1627 1039 1601 1038 1564 1038 1564 1038 1564 1044 1564 1035 1499 1048 1196 1044 1196 1044" class="hb"/><path d="M1452 533C1452 534 1452 536 1453 537 1453 540 1454 544 1456 546 1460 553 1469 554 1475 558 1476 559 1477 560 1477 561 1478 563 1476 564 1474 565 1444 584 1396 591 1378 553 1387 548 1398 547 1402 536 1405 527 1400 514 1402 504 1406 490 1425 460 1441 474 1453 483 1450 519 1452 533" class="hp"/><path d="M1450 408C1453 399 1456 389 1454 379 1450 362 1432 353 1416 349 1405 347 1394 345 1384 349 1376 352 1368 357 1361 362 1355 366 1348 371 1342 375 1334 380 1327 385 1322 392 1308 410 1313 436 1322 455 1333 480 1352 501 1371 522 1386 508 1402 493 1418 479 1428 470 1438 461 1444 449 1451 438 1455 421 1450 408" class="hr"/><path d="M1329 433C1327 408 1356 394 1385 392 1415 389 1445 400 1447 424 1447 424 1459 497 1422 540 1415 548 1406 552 1397 554 1387 554 1377 551 1369 544 1327 507 1329 433 1329 433" class="hp"/><path d="M1376 427C1370 425 1364 422 1359 420 1329 406 1330 394 1364 385 1364 385 1365 385 1365 385 1389 379 1422 363 1441 388 1446 395 1448 403 1450 411 1453 423 1457 436 1453 449 1427 444 1401 437 1376 427" class="hr"/><path d="M1362 544C1362 544 1362 544 1362 544 1373 554 1389 557 1404 552 1410 550 1416 547 1421 541 1426 537 1430 532 1435 528 1423 512 1418 493 1421 474L1421 472C1414 470 1406 468 1399 467 1376 463 1353 468 1334 481 1336 509 1351 533 1362 544" class="ha"/></g><g ><path d="M926 337C917 346 910 356 906 367 895 392 890 418 888 445 886 461 884 476 885 492 886 514 889 518 910 511 951 495 991 479 1030 459 1046 451 1063 441 1070 424 1086 386 1065 326 1027 310 990 295 952 309 926 337" class="hk"/><path d="M799 1026C809 988 818 719 828 682 839 637 842 571 887 544 928 518 980 511 1030 512 1035 512 1040 513 1045 513 1054 513 1064 514 1073 517 1092 521 1111 528 1129 538 1173 566 1177 631 1188 677 1197 714 1207 983 1216 1020 1216 1020 1191 1018 1155 1017 1154 1026 1155 1020 1155 1021L799 1026" class="ha"/><path d="M1005 449C1012 453 1019 457 1025 462 1028 464 1032 468 1034 472 1036 476 1036 480 1037 485 1037 502 1037 507 1053 512 1055 513 1056 513 1057 514 1058 515 1058 517 1058 518 1057 532 1045 545 1031 546 1026 547 1020 546 1015 545 1007 544 998 542 989 541 979 539 967 537 960 528 959 526 957 523 959 521 959 519 961 518 963 517 982 505 987 499 994 478 994 476 1004 448 1005 449" class="hi"/><path d="M965 510C965 510 965 510 965 510 969 513 974 514 978 514 986 514 993 512 1000 509 1018 500 1031 485 1037 467 1054 421 1038 371 1038 371 1016 313 923 323 922 380 922 380 915 467 965 510" class="hi"/><path d="M1064 424C1059 405 1042 418 1042 418L1037 463C1050 465 1071 447 1064 424" class="hi"/><path d="M953 506C953 506 953 506 953 506 963 517 980 521 994 516 1001 514 1007 510 1012 504 1017 499 1021 494 1026 490 1014 472 1010 451 1013 431L1013 428C1006 426 998 424 990 422 968 417 944 422 925 436 927 467 941 493 953 506" class="ha"/><path d="M1002 440L1002 439C1002 439 1037 438 1042 420L1043 421C1041 429 1033 434 1020 438 1011 440 1002 440 1002 440" class="ha"/><path d="M1012 488L1012 487C1030 478 1036 464 1036 463L1037 464C1037 464 1031 479 1012 488" class="ha"/><path d="M947 339C958 382 1030 443 1064 413 1071 407 1071 396 1069 387 1061 344 1025 310 985 304 974 302 962 303 954 310 945 317 944 327 947 339" class="hk"/></g><g ><path d="M608 341C567 306 509 325 488 372 479 394 467 414 452 432 419 471 424 543 515 539 533 538 551 538 569 539 604 542 648 539 653 485 654 465 648 447 649 428 652 395 648 351 608 341" class="hl"/><path d="M589 533C543 532 495 534 452 551 440 555 429 561 420 570 402 588 398 616 395 642 393 656 374 996 383 997 387 997 426 999 426 997 426 997 426 998 426 998 474 999 522 1000 570 1000 608 1001 647 1001 685 1002 703 1002 758 1012 764 996 764 995 764 994 764 993 763 945 757 711 747 664 740 631 741 576 707 558 671 537 630 534 589 533" class="ho"/><path d="M597 496C597 499 597 503 597 506 600 519 610 521 614 532 615 535 614 538 613 540 606 558 587 571 569 569 550 568 533 553 529 534 555 523 543 488 542 467 542 465 542 463 543 462 544 459 548 458 551 458 564 457 591 452 597 468 600 477 598 487 597 496" class="hc"/><path d="M631 389C631 340 511 340 511 389 511 389 504 462 544 501 560 517 586 517 602 501 643 462 631 389 631 389" class="hc"/><path d="M499 429C503 413 519 423 519 423L524 461C513 463 494 448 499 429" class="hc"/><path d="M633 446C631 474 615 497 604 505 587 519 564 520 548 505 540 498 535 491 525 487 523 487 521 463 519 446 521 445 541 436 562 430 583 423 607 427 625 440 629 443 632 446 633 446" class="ha"/><path d="M521 454C521 454 520 436 516 421L521 454" class="ha"/><path d="M630 411C599 390 586 346 586 346 625 338 648 376 630 411" class="hl"/><path d="M599 342C599 342 585 417 513 421 471 375 558 296 599 342" class="hl"/></g><g ><path d="M358 1075C348 1038 339 805 330 768 319 722 315 657 271 630 230 604 179 597 129 598 124 598 119 598 114 598 105 599 95 600 86 602 66 606 47 613 30 624 -14 651-18 717-29 762 -38 799-48 1032-57 1070 -57 1070-32 1069 4 1069 4 1069 4 1070 3 1070L358 1075" class="hn"/><path d="M126 576C126 577 126 579 126 580 125 583 124 586 122 589 118 595 109 596 103 601 102 602 101 603 101 604 101 605 103 607 104 608 134 626 183 642 201 605 192 600 179 590 176 579 173 570 177 557 175 547 172 533 153 504 137 517 126 527 128 562 126 576" class="hp"/><path d="M203 496C199 480 206 464 205 448 205 442 203 437 201 432 200 430 199 426 201 425 203 423 207 424 208 426 212 430 213 435 213 440 214 449 214 460 211 469 208 478 202 487 203 496" class="hd"/><path d="M90 422C88 412 86 401 90 391 96 375 115 368 132 366 137 366 142 366 148 367 159 370 169 377 180 381 191 385 206 384 212 374 216 384 214 397 208 405 213 406 218 406 223 404 235 430 228 462 214 486 199 510 177 529 155 548 141 531 127 514 113 497 104 487 95 476 90 464 85 452 83 434 90 422" class="hq"/><path d="M116 554C82 534 59 495 59 454 59 442 61 430 67 421 74 411 87 405 97 410 123 453 129 505 116 554" class="hq"/><path d="M207 454C207 430 178 418 149 418 119 418 90 430 90 454 90 454 83 527 122 566 130 573 139 577 149 578 158 577 167 573 175 566 214 527 207 454 207 454" class="hc"/><path d="M79 493C83 476 98 487 98 487L103 524C92 526 74 512 79 493" class="hc"/><path d="M218 493C214 476 198 487 198 487L193 524C204 526 222 512 218 493" class="hc"/><path d="M96 496C100 480 93 464 94 448 95 442 96 437 98 432 99 430 100 426 98 425 96 423 92 424 91 426 87 430 86 435 86 440 85 449 85 460 88 469 91 478 97 487 96 496" class="hq"/><path d="M209 486C205 496 203 507 202 513 197 509 181 501 165 496 156 493 146 493 137 496 120 501 104 509 99 513 98 507 96 496 92 486L99 513C98 513 98 513 97 514 99 529 101 552 103 552 112 555 117 562 124 569 139 583 162 583 177 569 185 562 189 555 198 552 200 552 203 529 204 514 204 513 203 513 203 513L209 486" class="ha"/></g><g ><path d="M1282 592C1261 582 1254 563 1227 561 1203 559 1182 570 1165 586 1122 629 1098 690 1077 746 1060 789 1046 840 1069 879 1083 902 1109 917 1135 917 1164 917 1191 902 1210 881 1230 860 1243 834 1255 808 1265 785 1287 779 1293 752 1296 732 1300 713 1305 694 1315 659 1321 610 1282 592" class="hn"/><path d="M1004 1056C1013 1019 1022 982 1032 946 1043 901 1047 835 1091 809 1133 783 1184 776 1234 777 1239 777 1244 777 1249 778 1258 778 1268 779 1277 781 1296 785 1315 792 1333 803 1377 830 1381 895 1392 940 1401 977 1411 1014 1420 1051 1420 1051 1395 1051 1359 1050 1359 1050 1359 1051 1359 1051L1004 1056" class="hg"/><path d="M1207 711C1214 715 1221 719 1227 724 1230 727 1234 730 1236 734 1238 738 1238 743 1239 747 1239 764 1239 770 1255 775 1257 775 1258 775 1259 777 1260 778 1260 779 1260 781 1259 795 1247 808 1233 809 1228 809 1222 808 1217 808 1209 806 1200 805 1191 803 1181 802 1169 799 1163 791 1161 789 1159 786 1161 783 1161 781 1163 780 1165 779 1184 767 1189 761 1196 741 1196 739 1207 711 1207 711" class="hc"/><path d="M1254 766C1254 766 1254 766 1254 766 1251 769 1246 770 1241 770 1234 769 1227 767 1221 762 1205 753 1193 737 1188 719 1177 673 1196 627 1196 627 1223 573 1312 591 1308 646 1308 646 1306 730 1254 766" class="hc"/><path d="M1163 675C1170 656 1187 671 1187 671L1187 715C1174 716 1155 696 1163 675" class="hc"/><path d="M1268 764C1268 764 1268 764 1268 764 1256 774 1240 777 1226 770 1220 767 1214 763 1210 757 1206 752 1202 747 1198 742 1211 726 1217 707 1216 686L1216 684C1223 683 1231 681 1239 681 1261 678 1284 685 1301 700 1296 729 1280 754 1268 764" class="ha"/><path d="M1226 694C1225 694 1216 693 1207 689 1194 685 1186 678 1185 670L1186 669C1190 689 1225 693 1226 693L1226 694" class="ha"/><path d="M1287 606C1287 606 1260 678 1187 669 1154 615 1254 552 1287 606" class="hn"/><path d="M1210 741C1192 730 1187 716 1187 716L1188 715C1188 715 1193 730 1211 740L1210 741" class="ha"/></g><g ><path d="M888 720C895 743 901 767 902 793 903 824 892 857 867 875 848 889 824 893 800 895 779 897 757 897 736 891 715 885 696 871 688 850 684 837 684 822 684 808 687 763 687 716 691 672 694 641 704 594 738 583 778 548 834 566 856 623 858 628 859 632 861 637 868 665 879 692 888 720" class="hk"/><path d="M797 781C751 780 702 782 659 799 647 803 636 809 628 818 609 837 605 865 602 891 601 905 585 1059 594 1060 598 1060 637 1062 637 1060 637 1061 637 1061 637 1061 685 1062 733 1063 781 1064 819 1064 858 1065 896 1065 914 1066 969 1075 975 1060 975 1059 975 1058 975 1056 974 1008 964 960 955 913 948 880 948 825 915 806 879 785 838 782 797 781" class="hh"/><path d="M777 711C783 715 790 719 796 724 800 727 803 730 805 734 807 738 807 742 808 747 808 759 812 776 827 780 829 781 831 781 833 782 835 782 837 784 837 786 837 793 821 802 817 804 807 809 798 810 787 808 778 806 769 805 761 803 750 802 739 799 732 791 731 789 729 786 731 783 731 781 733 780 734 779 754 767 758 761 765 741 766 738 776 710 777 711" class="hi"/><path d="M842 633C842 608 812 595 781 595 751 595 720 608 720 633 720 633 713 707 754 748 761 755 771 759 781 760 791 759 801 755 808 748 850 707 842 633 842 633" class="hi"/><path d="M706 672C710 656 728 666 728 666L733 704C721 706 700 691 706 672" class="hi"/><path d="M857 672C852 656 835 666 835 666L829 704C841 706 862 691 857 672" class="hi"/><path d="M723 696C723 696 722 678 718 662L719 662C723 678 723 696 723 696L723 696" class="ha"/><path d="M837 695L836 695C836 695 836 677 840 662L841 662C837 678 837 695 837 695" class="ha"/><path d="M835 690C833 707 831 732 829 732 819 736 814 743 806 751 790 765 766 765 750 751 742 743 737 735 727 732 725 732 723 707 721 690 724 689 743 677 763 671 773 668 783 668 793 671 813 677 832 689 835 690" class="ha"/><path d="M719 661C737 645 734 611 772 596 732 573 694 630 719 661" class="hk"/><path d="M845 665C819 612 766 625 759 590 808 557 876 609 845 665" class="hk"/></g><g ><path d="M572 1049C562 1010 553 972 543 933 531 887 528 819 481 790 438 764 385 757 332 758 327 758 322 758 317 758 307 759 297 759 288 762 267 766 247 774 229 785 183 813 179 881 167 928 157 966 148 1004 138 1043 138 1043 164 1043 201 1042 201 1042 201 1043 201 1043L572 1049" class="hj"/><path d="M312 737C312 738 312 739 312 740 311 744 310 748 308 750 304 757 295 758 289 763 288 763 287 764 287 766 287 767 288 769 290 770 320 789 369 796 387 757 378 752 367 751 363 740 360 730 365 717 363 707 359 692 340 662 323 676 312 686 314 722 312 737" class="hc"/><path d="M314 613C311 603 308 593 310 583 314 566 332 557 348 553 359 551 370 549 381 553 389 556 397 561 404 566 410 570 417 575 424 580 431 585 438 590 444 597 458 615 452 640 444 659 433 685 413 706 394 727 378 712 362 698 346 683 336 674 326 665 320 654 313 642 309 625 314 613" class="hf"/><path d="M358 738C321 723 294 688 289 648 287 637 287 625 293 615 298 605 310 598 321 600 351 640 364 689 358 738" class="hf"/><path d="M444 638C445 613 416 599 386 597 355 595 324 605 322 629 322 629 310 701 348 744 355 751 364 756 374 757 384 757 394 754 402 747 446 711 444 638 444 638" class="hc"/><path d="M304 668C309 652 325 663 325 663L327 700C316 701 297 686 304 668" class="hc"/><path d="M391 628C391 623 391 619 391 615 400 621 410 626 420 629 426 631 433 632 438 628 441 626 442 622 442 618 441 609 436 602 429 597 422 592 413 589 405 587 394 584 383 582 371 581 357 579 347 585 353 599 359 611 380 622 391 628" class="hf"/><path d="M405 749C405 749 405 749 405 749 395 759 378 763 364 758 357 755 351 751 346 746 341 741 337 736 333 732 344 715 349 696 347 676L346 673C353 672 361 670 369 669 392 665 415 670 434 683 432 712 417 737 405 749" class="ha"/><path d="M353 688C353 688 344 685 335 681 322 674 316 667 315 659L316 659C318 677 353 687 354 687L353 688" class="ha"/><path d="M347 722C329 713 322 698 322 698L323 697C323 698 330 712 348 721L347 722" class="ha"/></g></g></svg>
