<svg xmlns="http://www.w3.org/2000/svg" width="800" height="561" viewBox="0 0 800 561"><style>.a{fill:white;}.b{fill:#4880A1;}.c{fill:#68BEC8;}.d{fill:#F2DAC7;}.f{fill:#F4DCC9;}</style><title>Woman sneezing</title><defs><polygon points="0 1 800 1 800 560 0 560"/><polygon points="0 1 348 1 348 98 0 98"/></defs><g fill="none"><mask class="a"><use xlink:href="#path-1"/></mask><polygon mask="url(#mask-2)" points="0 560 800 560 800 1 0 1"/><path d="M454 220C461 304 462 348 463 432 402 456 329 450 262 459 271 369 277 324 272 233 269 182 230 85 290 53 310 43 318 23 345 18 367 13 390 18 410 29 454 52 489 96 495 146 499 179 491 213 472 240 453 265 423 262 395 271 355 284 303 295 280 234 272 211 274 188 267 167 266 165 265 162 264 159L454 220" mask="url(#mask-2)" class="b"/><path d="M389 255C442 248 498 244 550 256 611 270 571 359 573 408 574 424 611 576 603 578 566 583 534 586 498 587 430 587 363 588 295 588 287 588 279 588 272 588 279 527 282 464 281 403 280 364 261 316 301 289 327 272 358 259 389 255" mask="url(#mask-2)" class="c"/><path d="M353 233C358 248 364 264 363 264 346 274 331 283 313 291 319 295 324 300 331 303 338 307 347 310 355 311 373 314 391 314 408 309 422 305 436 297 448 289 457 281 466 272 469 261 470 257 471 253 471 248 459 247 445 249 432 249 419 249 419 241 416 230 412 219 408 208 407 196 406 186 411 173 395 176 379 179 346 181 343 202 343 205 348 219 353 233" class="d"/><path d="M266 122C243 65 382 9 405 67 405 67 448 149 420 214 409 240 379 252 353 241 287 213 266 122 266 122" class="d"/><path d="M442 105C429 87 415 108 415 108L428 155C442 152 457 126 442 105" class="d"/><path d="M285 53C285 53 336 131 420 102 446 31 311-19 285 53" class="b"/><path d="M275 147C303 108 296 51 296 51 246 61 237 115 275 147" class="b"/><polyline points="272 279 154 243 116 318 327 399 314 287 272 279" class="c"/><path d="M237 136C227 123 212 116 200 106 199 104 201 102 203 103 215 114 230 121 240 133 242 135 239 137 237 136" class="b"/><path d="M223 160C210 150 193 149 178 142 176 141 177 137 180 138 195 145 212 147 226 157 228 158 225 161 223 160" class="b"/><path d="M222 191C206 193 189 191 172 190 170 189 171 185 173 186 189 187 206 189 222 187 224 186 224 190 222 191" class="b"/><g transform="translate(337.578027 462.222222)"><mask class="a"><use xlink:href="#path-3"/></mask><path d="M342 61C347 53 349 43 347 33 335-28 261 14 224 24 196 31 177 38 149 45 141 50 147 74 148 76 156 93 176 89 195 89 235 90 275 85 314 76 323 74 332 71 338 65 340 64 341 62 342 61" mask="url(#mask-4)" class="f"/><path d="M211 37C209 35 206 35 204 34 199 32 195 34 190 36 181 38 171 40 162 42 150 45 137 48 125 51 118 49 112 48 105 46 93 43 82 40 70 37 68 37 67 36 65 36 64 36 64 35 63 35 57 34 51 39 46 41 41 44 35 47 30 50 28 51 26 51 25 52 23 53 22 54 21 56 19 58 17 60 15 62 11 67 6 72 3 78 2 79 1 80 1 81 -2 86 11 87 19 80 26 73 32 63 42 60 51 57 63 54 63 54 54 59 46 64 38 69 37 69 36 70 34 71 30 73 26 77 23 80 18 85 13 90 8 94 -3 105 1 109 10 106 18 102 41 85 41 84 44 82 47 82 50 81 53 80 56 79 59 78 63 77 67 76 71 74 71 74 33 96 33 96 33 96 9 110 10 116 11 123 45 105 45 105L76 93C75 93 75 93 75 93 64 100 54 106 44 112 41 113 39 114 36 115 36 115 29 119 35 122 40 124 57 119 62 118 66 117 83 109 91 108 100 108 126 109 134 102 143 94 143 94 143 94 160 93 178 94 196 92 202 91 213 92 218 86 224 81 226 68 226 61 225 50 219 42 211 37" mask="url(#mask-4)" class="f"/></g><path d="M570 280L576 268C576 268 698 437 698 437 706 448 710 499 707 511 698 544 593 554 562 557L558 481 611 460 523 341 570 280" class="c"/><path d="M539 201C539 201 539 202 539 202 564 281 582 362 594 444 585 447 469 452 423 451 418 386 438 332 438 272 436 252 441 227 443 207 445 188 466 174 465 155 465 145 464 136 462 126 461 120 461 106 457 101 438 82 407 99 386 100 372 100 358 97 344 92 326 87 308 79 292 69 289 67 286 64 284 61 278 52 286 40 294 34 323 12 361 10 395 19 439 32 474 62 496 101 514 133 528 166 539 201" class="b"/><path d="M403 215C404 214 406 212 408 211 412 209 417 210 422 210 432 209 441 209 451 209 463 209 476 209 488 208 494 205 501 202 507 198 517 193 527 187 538 181 539 180 541 180 542 179 543 178 544 178 544 178 549 175 557 178 562 179 568 181 574 182 580 183 582 184 584 184 586 184 587 185 588 186 590 187 592 188 595 190 597 192 602 196 608 199 613 203 614 204 615 205 616 206 620 210 607 214 598 209 590 204 581 197 571 196 561 196 549 195 549 195 558 198 568 201 577 203 578 204 579 204 581 205 586 206 590 208 594 211 600 214 606 217 612 221 625 229 623 233 613 232 604 231 578 219 578 219 575 218 572 219 569 218 565 218 562 218 559 218 555 217 550 218 547 217 547 217 589 228 589 228 589 228 614 235 616 242 617 249 579 240 579 240 579 240 547 236 547 236 547 236 547 236 548 236 559 240 570 244 582 246 585 247 587 247 590 248 590 248 598 250 593 253 588 257 571 257 567 257 562 257 543 253 535 255 527 256 502 264 492 259 482 254 482 254 482 254 465 257 448 262 431 265 424 265 414 269 408 265 401 261 396 250 394 242 392 232 395 222 403 215" class="f"/><path d="M438 268C443 264 436 209 435 202 433 190 270 215 252 215 242 215 118 225 110 229 89 240 97 291 106 309 118 336 241 300 264 296 287 292 311 288 334 284 368 278 403 274 438 268" class="c"/></g></svg>
