<svg xmlns="http://www.w3.org/2000/svg" width="48" height="48" viewBox="0 0 48 48"><title>Email</title><g style="fill:none;stroke-width:1;stroke:none"><g class="to-fill"><path d="M32.6 0C38 0 39.9 0.6 41.9 1.6 43.8 2.6 45.4 4.2 46.4 6.1 47.4 8.1 48 10 48 15.4L48 32.6C48 38 47.4 39.9 46.4 41.9 45.4 43.8 43.8 45.4 41.9 46.4 39.9 47.4 38 48 32.6 48L15.4 48C10 48 8.1 47.4 6.1 46.4 4.2 45.4 2.6 43.8 1.6 41.9 0.6 39.9 0 38 0 32.6L0 15.4C0 10 0.6 8.1 1.6 6.1 2.6 4.2 4.2 2.6 6.1 1.6 8.1 0.6 10 0 15.4 0L32.6 0ZM37 20C37 20 26.7 28.3 24.5 28.3 22.5 28.3 12 20 12 20L12 20 12 32.9C12 34 12.9 35 14.1 35L14.1 35 34.9 35C36.1 35 37 34 37 32.9L37 32.9ZM34.9 14L14.1 14C12.9 14 12 15 12 16.2L12 16.2 12 17.2C12 17.2 22.5 26 24.5 26 26.6 26 37 17.3 37 17.3L37 17.3 37 16.2C37 15 36.1 14 34.9 14L34.9 14Z"/></g></g></svg>
