<svg xmlns="http://www.w3.org/2000/svg" width="48" height="48" viewBox="0 0 48 48"><title>Linkedin</title><g style="fill:none;stroke-width:1;stroke:none"><g class="to-fill"><path d="M15.4 0L32.6 0C38 0 39.9 0.6 41.9 1.6 43.8 2.6 45.4 4.2 46.4 6.1 47.4 8.1 48 10 48 15.4L48 32.6C48 38 47.4 39.9 46.4 41.9 45.4 43.8 43.8 45.4 41.9 46.4 39.9 47.4 38 48 32.6 48L15.4 48C10 48 8.1 47.4 6.1 46.4 4.2 45.4 2.6 43.8 1.6 41.9 0.6 39.9 0 38 0 32.6L0 15.4C0 10 0.6 8.1 1.6 6.1 2.6 4.2 4.2 2.6 6.1 1.6 8.1 0.6 10 0 15.4 0ZM16.3 36.9L16.3 18.2 10.1 18.2 10.1 36.9 16.3 36.9ZM38.9 36.9L38.9 26.2C38.9 20.4 35.8 17.7 31.6 17.7 28.3 17.7 26.8 19.5 26 20.8L26 18.2 19.7 18.2C19.8 19.9 19.7 36.9 19.7 36.9L26 36.9 26 26.4C26 25.9 26 25.3 26.2 24.9 26.6 23.8 27.7 22.6 29.4 22.6 31.7 22.6 32.6 24.4 32.6 26.9L32.6 36.9 38.9 36.9 38.9 36.9ZM13.2 9.1C11 9.1 9.6 10.5 9.6 12.4 9.6 14.3 11 15.8 13.1 15.8L13.2 15.8C15.4 15.8 16.8 14.3 16.8 12.4 16.8 10.5 15.4 9.1 13.2 9.1L13.2 9.1Z"/></g></g></svg>
