<svg xmlns="http://www.w3.org/2000/svg" width="800" height="660" viewBox="0 0 800 660"><style>.g{fill:#FFF;}.h{fill:#333;}.i{fill:#826F60;}</style><title>Man wearing face mask in front of laptop</title><defs><rect width="801" height="660"/></defs><g fill="none"><rect width="800" height="660" class="g"/><mask fill="white"><use xlink:href="#path-1"/></mask><g mask="url(#mask-2)"><path d="M374 255C408 251 443 247 478 247 499 247 521 248 541 256 576 270 600 303 612 338 619 360 647 666 650 666 650 666 216 660 216 660 217 660 230 474 232 453 237 404 237 307 284 277 304 264 328 261 352 258 359 257 366 256 374 255" fill="#FCAEA1"/><path d="M494 76C497 65 501 54 498 43 494 24 474 13 455 9 442 6 430 4 418 9 409 12 400 17 392 23 385 28 377 33 370 38 361 44 353 50 347 58 331 78 337 107 346 129 359 158 381 182 402 206 421 189 439 173 457 156 468 146 479 136 487 123 495 110 499 90 494 76" class="h"/><path d="M444 219C486 201 517 161 524 116 526 103 525 89 519 78 513 66 500 58 487 61 452 106 438 162 444 219" class="h"/><path d="M474 231C475 233 477 236 478 238 487 251 491 262 476 276 469 282 459 286 450 287 429 291 415 284 402 269 387 252 399 242 412 230 430 215 427 201 431 178 434 166 437 149 450 159 458 165 460 185 462 194 465 209 467 219 474 231" class="i"/><path d="M354 103C352 75 386 58 419 56 453 54 488 65 490 94 490 94 504 177 461 225 454 234 443 239 432 240 421 241 410 237 400 229 352 187 354 103 354 103" class="i"/><path d="M512 141C506 123 489 137 489 137L486 180C499 181 520 163 512 141" class="i"/><path d="M390 230C390 230 390 230 390 230 402 243 421 248 438 243 446 240 453 236 459 230 465 225 470 219 475 214 463 195 458 171 462 149L463 146C455 143 446 141 437 139 411 133 383 138 361 152 362 186 377 216 390 230" class="g"/><path d="M488 175C486 178 484 180 482 183 480 185 477 187 475 189 472 191 470 193 467 194 465 195 464 195 462 196 461 196 459 197 458 197L458 197C459 196 461 196 462 195 463 194 465 194 466 193 469 191 472 190 474 188 477 186 479 184 482 182 484 180 486 178 488 175L488 175" class="g"/><path d="M449 160L449 159C450 159 489 151 491 132L492 132C491 140 484 148 470 154 460 158 450 160 449 160" class="g"/></g><polyline mask="url(#mask-2)" points="801 739 -35 755 61 510 787 493 801 739" fill="#F5F5F2"/><path d="M563 496C508 500 456 500 401 502 399 502 396 502 394 504 392 505 390 507 389 509 379 523 369 538 359 552 349 567 338 582 334 601 384 598 434 594 483 604 499 607 526 614 535 606 554 596 659 495 664 496 637 495 590 495 563 496Z" mask="url(#mask-2)" fill="#696966"/><path d="M168 364C172 403 175 447 179 485 182 516 190 607 206 608 225 610 246 610 266 610 351 610 436 610 522 610 512 610 495 430 489 382 488 369 485 354 482 343 477 337 380 338 371 339 330 342 214 348 197 349 188 349 180 350 174 352 170 354 168 358 168 364Z" mask="url(#mask-2)" fill="#797A75"/></g></svg>
