<svg xmlns="http://www.w3.org/2000/svg" width="48" height="48" viewBox="0 0 48 48"><title>Facebook</title><g style="fill:none;stroke-width:1;stroke:none"><g class="to-fill"><path d="M15.4 0L32.6 0C38 0 39.9 0.6 41.9 1.6 43.8 2.6 45.4 4.2 46.4 6.1 47.4 8.1 48 10 48 15.4L48 32.6C48 38 47.4 39.9 46.4 41.9 45.4 43.8 43.8 45.4 41.9 46.4 39.9 47.4 38 48 32.6 48L15.4 48C10 48 8.1 47.4 6.1 46.4 4.2 45.4 2.6 43.8 1.6 41.9 0.6 39.9 0 38 0 32.6L0 15.4C0 10 0.6 8.1 1.6 6.1 2.6 4.2 4.2 2.6 6.1 1.6 8.1 0.6 10 0 15.4 0ZM38.7 23.9L31.9 23.9 31.9 19.3C31.9 17.4 32.8 15.5 35.9 15.5L39 15.5 39 9.5C39 9.5 36.1 9 33.5 9 27.9 9 24.2 12.4 24.2 18.5L24.2 23.9 18 23.9 18 31 24.2 31 24.2 48C25.4 48 30.5 48 31.9 48L31.9 31 37.6 31 38.7 23.9Z"/></g></g></svg>
