<svg xmlns="http://www.w3.org/2000/svg" width="48" height="48" viewBox="0 0 48 48"><title>Link</title><g style="fill:none;stroke-width:1;stroke:none"><g class="to-fill"><path d="M15.4 0L32.6 0C38 0 39.9 0.6 41.9 1.6 43.8 2.6 45.4 4.2 46.4 6.1 47.4 8.1 48 10 48 15.4L48 32.6C48 38 47.4 39.9 46.4 41.9 45.4 43.8 43.8 45.4 41.9 46.4 39.9 47.4 38 48 32.6 48L15.4 48C10 48 8.1 47.4 6.1 46.4 4.2 45.4 2.6 43.8 1.6 41.9 0.6 39.9 0 38 0 32.6L0 15.4C0 10 0.6 8.1 1.6 6.1 2.6 4.2 4.2 2.6 6.1 1.6 8.1 0.6 10 0 15.4 0ZM20.8 31.5L19.4 32.8C18.3 34 16.4 34 15.2 32.8 14.7 32.2 14.3 31.5 14.3 30.7 14.3 29.9 14.7 29.2 15.2 28.6L20.2 23.7C21.2 22.7 23.1 21.2 24.5 22.6 25.2 23.2 26.2 23.2 26.9 22.6 27.5 21.9 27.5 20.9 26.9 20.2 24.5 17.9 20.9 18.3 17.8 21.4L12.9 26.3C11.7 27.5 11 29 11 30.7 11 32.4 11.7 34 12.9 35.1 14.1 36.4 15.7 37 17.3 37 18.9 37 20.5 36.4 21.8 35.1L23.1 33.8C23.8 33.2 23.8 32.1 23.1 31.5 22.5 30.8 21.4 30.8 20.8 31.5ZM35.1 13C32.5 10.5 28.9 10.4 26.6 12.7L24.9 14.3C24.2 15 24.2 16 24.9 16.6 25.5 17.3 26.6 17.3 27.2 16.6L28.9 15C30.1 13.8 31.7 14.3 32.8 15.3 33.3 15.9 33.7 16.6 33.7 17.4 33.7 18.1 33.3 18.9 32.8 19.4L27.5 24.6C25.1 26.9 23.9 25.8 23.5 25.4 22.8 24.7 21.8 24.7 21.1 25.4 20.5 26 20.5 27 21.1 27.7 22.2 28.7 23.5 29.3 24.8 29.3 26.5 29.3 28.2 28.5 29.8 26.9L35.1 21.7C36.3 20.6 37 19 37 17.4 37 15.7 36.3 14.2 35.1 13Z"/></g></g></svg>
