<svg xmlns="http://www.w3.org/2000/svg" width="48" height="48" viewBox="0 0 48 48"><title>Twitter</title><g style="fill:none;stroke-width:1;stroke:none"><g class="to-fill"><path d="M15.4 0L32.6 0C38 0 39.9 0.6 41.9 1.6 43.8 2.6 45.4 4.2 46.4 6.1 47.4 8.1 48 10 48 15.4L48 32.6C48 38 47.4 39.9 46.4 41.9 45.4 43.8 43.8 45.4 41.9 46.4 39.9 47.4 38 48 32.6 48L15.4 48C10 48 8.1 47.4 6.1 46.4 4.2 45.4 2.6 43.8 1.6 41.9 0.6 39.9 0 38 0 32.6L0 15.4C0 10 0.6 8.1 1.6 6.1 2.6 4.2 4.2 2.6 6.1 1.6 8.1 0.6 10 0 15.4 0ZM19.2 38C30.8 38 37.2 28.4 37.2 20 37.2 19.8 37.2 19.5 37.2 19.2 38.4 18.3 39.5 17.2 40.3 16 39.2 16.4 38 16.8 36.7 16.9 38 16.2 39 14.9 39.5 13.5 38.3 14.2 36.9 14.7 35.5 15 34.3 13.8 32.7 13 30.9 13 27.4 13 24.6 15.8 24.6 19.3 24.6 19.8 24.6 20.3 24.7 20.7 19.5 20.5 14.8 18 11.7 14.2 11.2 15.1 10.9 16.2 10.9 17.3 10.9 19.5 12 21.4 13.7 22.6 12.7 22.5 11.7 22.2 10.8 21.8L10.8 21.8C10.8 24.9 13 27.4 15.9 28 15.4 28.2 14.8 28.3 14.2 28.3 13.8 28.3 13.4 28.2 13.1 28.1 13.9 30.6 16.2 32.5 18.9 32.5 16.8 34.2 14.1 35.2 11.1 35.2 10.6 35.2 10.1 35.2 9.6 35.1 12.4 36.9 15.7 38 19.2 38L19.2 38Z"/></g></g></svg>
